<svg width="21" height="20" viewBox="0 0 21 20" fill="none" xmlns="http://www.w3.org/2000/svg">
<rect x="0.25" width="20" height="20" rx="4" fill="#F51C1C"/>
<g clip-path="url(#clip0_0_3579)">
<path d="M14.375 6.33333H12.9541C12.8477 5.81606 12.5663 5.35128 12.1572 5.01733C11.7481 4.68337 11.2364 4.50067 10.7083 4.5L9.79163 4.5C9.26353 4.50067 8.75181 4.68337 8.34272 5.01733C7.93363 5.35128 7.65217 5.81606 7.54579 6.33333H6.12496C6.0034 6.33333 5.88682 6.38162 5.80087 6.46758C5.71491 6.55353 5.66663 6.67011 5.66663 6.79167C5.66663 6.91322 5.71491 7.0298 5.80087 7.11576C5.88682 7.20171 6.0034 7.25 6.12496 7.25H6.58329V13.2083C6.58402 13.8159 6.8257 14.3984 7.25531 14.828C7.68492 15.2576 8.2674 15.4993 8.87496 15.5H11.625C12.2325 15.4993 12.815 15.2576 13.2446 14.828C13.6742 14.3984 13.9159 13.8159 13.9166 13.2083V7.25H14.375C14.4965 7.25 14.6131 7.20171 14.6991 7.11576C14.785 7.0298 14.8333 6.91322 14.8333 6.79167C14.8333 6.67011 14.785 6.55353 14.6991 6.46758C14.6131 6.38162 14.4965 6.33333 14.375 6.33333ZM9.79163 5.41667H10.7083C10.9926 5.41701 11.2698 5.5053 11.5019 5.66941C11.7341 5.83353 11.9098 6.06543 12.0049 6.33333H8.495C8.59014 6.06543 8.76583 5.83353 8.99797 5.66941C9.23011 5.5053 9.50733 5.41701 9.79163 5.41667ZM13 13.2083C13 13.573 12.8551 13.9227 12.5972 14.1806C12.3394 14.4385 11.9896 14.5833 11.625 14.5833H8.87496C8.51029 14.5833 8.16055 14.4385 7.90269 14.1806C7.64483 13.9227 7.49996 13.573 7.49996 13.2083V7.25H13V13.2083Z" fill="white"/>
<path d="M9.33333 12.75C9.45489 12.75 9.57147 12.7018 9.65742 12.6158C9.74338 12.5298 9.79167 12.4133 9.79167 12.2917V9.54171C9.79167 9.42015 9.74338 9.30357 9.65742 9.21762C9.57147 9.13166 9.45489 9.08337 9.33333 9.08337C9.21178 9.08337 9.0952 9.13166 9.00924 9.21762C8.92329 9.30357 8.875 9.42015 8.875 9.54171V12.2917C8.875 12.4133 8.92329 12.5298 9.00924 12.6158C9.0952 12.7018 9.21178 12.75 9.33333 12.75Z" fill="white"/>
<path d="M11.1667 12.75C11.2883 12.75 11.4048 12.7018 11.4908 12.6158C11.5768 12.5298 11.625 12.4133 11.625 12.2917V9.54171C11.625 9.42015 11.5768 9.30357 11.4908 9.21762C11.4048 9.13166 11.2883 9.08337 11.1667 9.08337C11.0451 9.08337 10.9286 9.13166 10.8426 9.21762C10.7567 9.30357 10.7084 9.42015 10.7084 9.54171V12.2917C10.7084 12.4133 10.7567 12.5298 10.8426 12.6158C10.9286 12.7018 11.0451 12.75 11.1667 12.75Z" fill="white"/>
</g>
<defs>
<clipPath id="clip0_0_3579">
<rect width="11" height="11" fill="white" transform="translate(4.75 4.5)"/>
</clipPath>
</defs>
</svg>
