<svg width="21" height="20" viewBox="0 0 21 20" fill="none" xmlns="http://www.w3.org/2000/svg">
<g clip-path="url(#clip0_0_3421)">
<path d="M12.125 9.72L8.58333 13.2617C8.2725 13.5717 7.84333 13.75 7.405 13.75H6.91667V13.2617C6.91667 12.8167 7.09 12.3983 7.405 12.0833L10.9467 8.54167L12.125 9.72ZM12.9942 6.49417L12.125 7.36333L13.3033 8.54167L14.1725 7.6725C14.4975 7.3475 14.4975 6.81917 14.1725 6.49417C13.8575 6.17833 13.3083 6.17833 12.9942 6.49417ZM20.25 4.16667V15.8333C20.25 18.1308 18.3808 20 16.0833 20H4.41667C2.11917 20 0.25 18.1308 0.25 15.8333V4.16667C0.25 1.86917 2.11917 0 4.41667 0H16.0833C18.3808 0 20.25 1.86917 20.25 4.16667ZM15.3517 5.31583C14.4067 4.37167 12.76 4.37167 11.8158 5.31583L6.22667 10.905C5.5975 11.5342 5.25 12.3717 5.25 13.2617V14.5833C5.25 15.0442 5.62333 15.4167 6.08333 15.4167H7.405C8.295 15.4167 9.1325 15.07 9.76167 14.44L15.3508 8.85083C16.3258 7.87583 16.3267 6.29083 15.3517 5.31583Z" fill="#607AFB"/>
</g>
<defs>
<clipPath id="clip0_0_3421">
<rect width="20" height="20" fill="white" transform="translate(0.25)"/>
</clipPath>
</defs>
</svg>
