<svg width="28" height="28" viewBox="0 0 28 28" fill="none" xmlns="http://www.w3.org/2000/svg">
<g clip-path="url(#clip0_51_278)">
<path d="M21.8318 13.9998H16.3333C15.0446 13.9998 13.9999 12.9551 13.9999 11.6664V6.15279C14.0031 5.06505 13.5004 4.03758 12.6396 3.37264C11.8238 2.72667 10.7543 2.49644 9.74507 2.74964C2.88561 4.45239 -1.29475 11.3935 0.408052 18.253C1.60773 23.0858 5.50192 26.784 10.3903 27.7326C17.0682 29.0109 23.584 24.859 25.2466 18.2663C25.5008 17.2558 25.271 16.1846 24.6248 15.3671C23.9522 14.5078 22.923 14.0039 21.8318 13.9998Z" fill="#9C9C9C"/>
<path d="M27.5928 8.6871C27.3265 7.69715 26.9299 6.74695 26.4133 5.86145C24.8597 3.19609 22.3217 1.24719 19.3457 0.434098C19.1496 0.381215 18.711 0.350098 18.711 0.350098C18.5542 0.350152 17.8792 0.350098 17.3448 0.782949C16.5595 1.40097 16.436 2.1036 16.4243 2.15845C16.3836 2.3305 16.3624 2.50664 16.3613 2.68345V8.1668C16.3613 10.0998 17.9283 11.6668 19.8613 11.6668H25.3668C26.0972 11.6689 26.7847 11.3221 27.2172 10.7334C27.537 10.3022 27.7015 9.77549 27.6838 9.23895C27.6745 9.05214 27.644 8.86697 27.5928 8.6871Z" fill="#9C9C9C"/>
</g>
<defs>
<clipPath id="clip0_51_278">
<rect width="28" height="28" fill="white"/>
</clipPath>
</defs>
</svg>
