<svg width="28" height="28" viewBox="0 0 28 28" fill="none" xmlns="http://www.w3.org/2000/svg">
<g clip-path="url(#clip0_51_264)">
<path d="M27.9542 20.8332L26.7187 10.332C26.3384 7.1015 23.5991 4.66667 20.3464 4.66667H16.3191C16.6889 4.17783 16.9152 3.57583 16.9152 2.91667C16.9152 1.3055 15.6097 0 13.9986 0C12.3874 0 11.0819 1.3055 11.0819 2.91667C11.0819 3.57583 11.3094 4.17783 11.6781 4.66667H7.65074C4.39691 4.66667 1.65758 7.10267 1.27841 10.332L0.0440767 20.8332C-0.17059 22.6508 0.405743 24.479 1.62258 25.8475C2.83824 27.2148 4.58708 28 6.41758 28H21.5831C23.4136 28 25.1612 27.2148 26.3781 25.8463C27.5949 24.4778 28.1689 22.6508 27.9542 20.8332ZM23.7612 23.5212C23.2012 24.1523 22.4254 24.5 21.5819 24.5H6.41641C5.57174 24.5 4.79824 24.1523 4.23708 23.5212C3.67591 22.89 3.42158 22.0815 3.51958 21.2427L4.75508 10.7415C4.92774 9.27383 6.17258 8.16667 7.65191 8.16667H20.3464C21.8257 8.16667 23.0706 9.27383 23.2432 10.7415L24.4787 21.2427C24.5767 22.0815 24.3224 22.89 23.7612 23.5212ZM18.6664 18.6667C18.6664 20.5963 17.0961 22.1667 15.1664 22.1667C15.1664 22.8118 14.6437 23.3333 13.9997 23.3333C13.3557 23.3333 12.8331 22.8118 12.8331 22.1667H12.5204C11.2756 22.1667 10.1136 21.497 9.48941 20.4178C9.16741 19.859 9.35758 19.1462 9.91524 18.8242C10.4717 18.501 11.1857 18.6912 11.5089 19.2488C11.7177 19.6105 12.1051 19.8333 12.5204 19.8333H15.1664C15.8104 19.8333 16.3331 19.3107 16.3331 18.6667C16.3331 18.2245 16.0169 17.8523 15.5806 17.7788L12.0339 17.1885C10.4682 16.9272 9.33308 15.5855 9.33308 14C9.33308 12.0703 10.9034 10.5 12.8331 10.5C12.8331 9.85483 13.3557 9.33333 13.9997 9.33333C14.6437 9.33333 15.1664 9.85483 15.1664 10.5H15.4791C16.7239 10.5 17.8859 11.1697 18.5101 12.2488C18.8332 12.8077 18.6419 13.5205 18.0854 13.8425C17.5254 14.1668 16.8114 13.9743 16.4917 13.4178C16.2829 13.0562 15.8956 12.8333 15.4802 12.8333H12.8342C12.1914 12.8333 11.6676 13.356 11.6676 14C11.6676 14.4422 11.9837 14.8143 12.4189 14.8878L15.9667 15.4782C17.5324 15.7395 18.6676 17.0812 18.6676 18.6667H18.6664Z" fill="#9C9C9C"/>
</g>
<defs>
<clipPath id="clip0_51_264">
<rect width="28" height="28" fill="white"/>
</clipPath>
</defs>
</svg>
