<svg width="32" height="32" viewBox="0 0 32 32" fill="none" xmlns="http://www.w3.org/2000/svg">
<rect width="32" height="32" rx="4" fill="#F51C1C"/>
<g clip-path="url(#clip0_0_3735)">
<path d="M22.6001 10.1333H20.3267C20.1565 9.30565 19.7062 8.562 19.0517 8.02768C18.3971 7.49335 17.5784 7.20102 16.7334 7.19995L15.2667 7.19995C14.4218 7.20102 13.603 7.49335 12.9485 8.02768C12.2939 8.562 11.8436 9.30565 11.6734 10.1333H9.40008C9.20559 10.1333 9.01906 10.2105 8.88154 10.3481C8.74401 10.4856 8.66675 10.6721 8.66675 10.8666C8.66675 11.0611 8.74401 11.2476 8.88154 11.3852C9.01906 11.5227 9.20559 11.6 9.40008 11.6H10.1334V21.1333C10.1346 22.1054 10.5213 23.0373 11.2086 23.7247C11.896 24.4121 12.828 24.7988 13.8001 24.8H18.2001C19.1722 24.7988 20.1041 24.4121 20.7915 23.7247C21.4789 23.0373 21.8656 22.1054 21.8667 21.1333V11.6H22.6001C22.7946 11.6 22.9811 11.5227 23.1186 11.3852C23.2562 11.2476 23.3334 11.0611 23.3334 10.8666C23.3334 10.6721 23.2562 10.4856 23.1186 10.3481C22.9811 10.2105 22.7946 10.1333 22.6001 10.1333ZM15.2667 8.66662H16.7334C17.1883 8.66717 17.6318 8.80843 18.0033 9.07101C18.3747 9.33359 18.6558 9.70465 18.808 10.1333H13.1921C13.3444 9.70465 13.6255 9.33359 13.9969 9.07101C14.3683 8.80843 14.8119 8.66717 15.2667 8.66662ZM20.4001 21.1333C20.4001 21.7168 20.1683 22.2763 19.7557 22.6889C19.3431 23.1015 18.7836 23.3333 18.2001 23.3333H13.8001C13.2166 23.3333 12.657 23.1015 12.2444 22.6889C11.8319 22.2763 11.6001 21.7168 11.6001 21.1333V11.6H20.4001V21.1333Z" fill="white"/>
<path d="M14.5336 20.4C14.7281 20.4 14.9146 20.3227 15.0522 20.1852C15.1897 20.0477 15.267 19.8612 15.267 19.6667V15.2667C15.267 15.0722 15.1897 14.8856 15.0522 14.7481C14.9146 14.6106 14.7281 14.5333 14.5336 14.5333C14.3391 14.5333 14.1526 14.6106 14.0151 14.7481C13.8776 14.8856 13.8003 15.0722 13.8003 15.2667V19.6667C13.8003 19.8612 13.8776 20.0477 14.0151 20.1852C14.1526 20.3227 14.3391 20.4 14.5336 20.4Z" fill="white"/>
<path d="M17.467 20.4C17.6615 20.4 17.848 20.3227 17.9855 20.1852C18.123 20.0477 18.2003 19.8612 18.2003 19.6667V15.2667C18.2003 15.0722 18.123 14.8856 17.9855 14.7481C17.848 14.6106 17.6615 14.5333 17.467 14.5333C17.2725 14.5333 17.086 14.6106 16.9484 14.7481C16.8109 14.8856 16.7336 15.0722 16.7336 15.2667V19.6667C16.7336 19.8612 16.8109 20.0477 16.9484 20.1852C17.086 20.3227 17.2725 20.4 17.467 20.4Z" fill="white"/>
</g>
<defs>
<clipPath id="clip0_0_3735">
<rect width="17.6" height="17.6" fill="white" transform="translate(7.2002 7.19995)"/>
</clipPath>
</defs>
</svg>
