<svg width="32" height="32" viewBox="0 0 32 32" fill="none" xmlns="http://www.w3.org/2000/svg">
<path d="M19 15.552L13.3333 21.2187C12.836 21.7147 12.1493 22 11.448 22H10.6667V21.2187C10.6667 20.5067 10.944 19.8373 11.448 19.3333L17.1147 13.6667L19 15.552ZM20.3907 10.3907L19 11.7813L20.8853 13.6667L22.276 12.276C22.796 11.756 22.796 10.9107 22.276 10.3907C21.772 9.88533 20.8933 9.88533 20.3907 10.3907ZM32 6.66667V25.3333C32 29.0093 29.0093 32 25.3333 32H6.66667C2.99067 32 0 29.0093 0 25.3333V6.66667C0 2.99067 2.99067 0 6.66667 0H25.3333C29.0093 0 32 2.99067 32 6.66667ZM24.1627 8.50533C22.6507 6.99467 20.016 6.99467 18.5053 8.50533L9.56267 17.448C8.556 18.4547 8 19.7947 8 21.2187V23.3333C8 24.0707 8.59733 24.6667 9.33333 24.6667H11.448C12.872 24.6667 14.212 24.112 15.2187 23.104L24.1613 14.1613C25.7213 12.6013 25.7227 10.0653 24.1627 8.50533Z" fill="#607AFB"/>
</svg>
