<svg width="20" height="20" viewBox="0 0 20 20" fill="none" xmlns="http://www.w3.org/2000/svg">
<g clip-path="url(#clip0_0_1607)">
<path d="M11.6666 5.84583V0.394991C12.4275 0.683324 13.1275 1.12749 13.7208 1.71999L16.6241 4.62499C17.2175 5.21749 17.6616 5.91749 17.95 6.67833H12.5C12.04 6.67833 11.6666 6.30499 11.6666 5.84583ZM18.3133 8.34583H12.5C11.1216 8.34583 9.99996 7.22416 9.99996 5.84583V0.0316577C9.86579 0.022491 9.73163 0.0116577 9.59579 0.0116577H5.83329C3.53579 0.012491 1.66663 1.88166 1.66663 4.17916V15.8458C1.66663 18.1433 3.53579 20.0125 5.83329 20.0125H14.1666C16.4641 20.0125 18.3333 18.1433 18.3333 15.8458V8.74999C18.3333 8.61416 18.3225 8.47999 18.3133 8.34583ZM13.0891 14.0792C12.9266 14.2417 12.7133 14.3233 12.5 14.3233C12.2866 14.3233 12.0733 14.2417 11.9108 14.0792L10.8333 13.0017V16.6667C10.8333 17.1267 10.46 17.5 9.99996 17.5C9.53996 17.5 9.16663 17.1267 9.16663 16.6667V13.0017L8.08913 14.0792C7.76329 14.405 7.23663 14.405 6.91079 14.0792C6.58496 13.7533 6.58496 13.2267 6.91079 12.9008L8.25579 11.5558C9.21746 10.5942 10.7825 10.5942 11.745 11.5558L13.09 12.9008C13.4158 13.2267 13.4158 13.7533 13.09 14.0792H13.0891Z" fill="white"/>
</g>
<defs>
<clipPath id="clip0_0_1607">
<rect width="20" height="20" fill="white"/>
</clipPath>
</defs>
</svg>
