<svg width="28" height="28" viewBox="0 0 28 28" fill="none" xmlns="http://www.w3.org/2000/svg">
<g clip-path="url(#clip0_51_235)">
<path d="M8.75 15.1667C7.71165 15.1667 6.69661 14.8588 5.83326 14.2819C4.9699 13.705 4.29699 12.8851 3.89963 11.9258C3.50227 10.9664 3.3983 9.91085 3.60088 8.89245C3.80345 7.87405 4.30346 6.93858 5.03769 6.20436C5.77191 5.47013 6.70738 4.97012 7.72578 4.76755C8.74418 4.56497 9.79978 4.66894 10.7591 5.0663C11.7184 5.46366 12.5383 6.13657 13.1152 6.99993C13.6921 7.86328 14 8.87832 14 9.91667C13.9985 11.3086 13.4448 12.643 12.4606 13.6273C11.4764 14.6115 10.1419 15.1651 8.75 15.1667ZM16.3333 28H1.16667C0.857247 28 0.560501 27.8771 0.341709 27.6583C0.122916 27.4395 0 27.1428 0 26.8333V26.25C0 23.9294 0.921872 21.7038 2.56282 20.0628C4.20376 18.4219 6.42936 17.5 8.75 17.5C11.0706 17.5 13.2962 18.4219 14.9372 20.0628C16.5781 21.7038 17.5 23.9294 17.5 26.25V26.8333C17.5 27.1428 17.3771 27.4395 17.1583 27.6583C16.9395 27.8771 16.6428 28 16.3333 28ZM20.4167 10.5C19.3783 10.5 18.3633 10.1921 17.4999 9.61522C16.6366 9.03834 15.9637 8.2184 15.5663 7.25909C15.1689 6.29978 15.065 5.24418 15.2675 4.22578C15.4701 3.20738 15.9701 2.27192 16.7044 1.53769C17.4386 0.803466 18.374 0.303452 19.3924 0.10088C20.4108 -0.101693 21.4664 0.00227475 22.4258 0.399635C23.3851 0.796995 24.205 1.4699 24.7819 2.33326C25.3588 3.19662 25.6667 4.21165 25.6667 5.25C25.6651 6.64192 25.1115 7.97638 24.1273 8.96061C23.143 9.94484 21.8086 10.4985 20.4167 10.5ZM18.7588 12.8578C17.6722 13.0036 16.6274 13.3722 15.6899 13.9406C14.7524 14.5089 13.9423 15.2647 13.3105 16.1607C15.9249 17.3479 17.979 19.4999 19.0435 22.1667H26.8333C27.1428 22.1667 27.4395 22.0438 27.6583 21.825C27.8771 21.6062 28 21.3094 28 21V20.9557C27.9988 19.7927 27.7495 18.6435 27.2688 17.5845C26.7881 16.5256 26.087 15.5814 25.2124 14.815C24.3377 14.0486 23.3097 13.4775 22.1968 13.14C21.0839 12.8025 19.9118 12.7063 18.7588 12.8578Z" fill="#9C9C9C"/>
</g>
<defs>
<clipPath id="clip0_51_235">
<rect width="28" height="28" fill="white"/>
</clipPath>
</defs>
</svg>
