<svg width="28" height="28" viewBox="0 0 28 28" fill="none" xmlns="http://www.w3.org/2000/svg">
<g clip-path="url(#clip0_41_221)">
<path d="M28.0001 22.1667C28.0001 22.8118 27.4774 23.3333 26.8334 23.3333H23.3334V26.8333C23.3334 27.4785 22.8108 28 22.1668 28C21.5228 28 21.0001 27.4785 21.0001 26.8333V23.3333H17.5001C16.8561 23.3333 16.3334 22.8118 16.3334 22.1667C16.3334 21.5215 16.8561 21 17.5001 21H21.0001V17.5C21.0001 16.8548 21.5228 16.3333 22.1668 16.3333C22.8108 16.3333 23.3334 16.8548 23.3334 17.5V21H26.8334C27.4774 21 28.0001 21.5215 28.0001 22.1667ZM6.41676 8.16667C8.66842 8.16667 10.5001 6.335 10.5001 4.08333C10.5001 1.83167 8.66842 0 6.41676 0C4.16509 0 2.33342 1.83167 2.33342 4.08333C2.33342 6.335 4.16509 8.16667 6.41676 8.16667ZM18.0834 8.16667C20.3351 8.16667 22.1668 6.335 22.1668 4.08333C22.1668 1.83167 20.3351 0 18.0834 0C15.8318 0 14.0001 1.83167 14.0001 4.08333C14.0001 6.335 15.8318 8.16667 18.0834 8.16667ZM8.16676 13.4167C8.16676 15.6683 9.99843 17.5 12.2501 17.5C14.5018 17.5 16.3334 15.6683 16.3334 13.4167C16.3334 11.165 14.5018 9.33333 12.2501 9.33333C9.99843 9.33333 8.16676 11.165 8.16676 13.4167ZM5.83342 13.4167C5.83342 11.9082 6.35959 10.5222 7.23459 9.4255C6.96626 9.39633 6.69442 9.37417 6.41676 9.37417C2.84209 9.37417 -0.0185758 11.7763 9.08356e-05 15.1993C0.00359084 15.8305 0.542591 16.3333 1.17376 16.3333H6.54276C6.09359 15.4572 5.83342 14.4678 5.83342 13.4167ZM14.0001 22.1667C14.0001 21.042 14.5426 20.0503 15.3698 19.4098C14.4411 18.9595 13.3759 18.7075 12.2501 18.7075C8.67543 18.7075 5.81476 21.1097 5.83342 24.5327C5.83692 25.1638 6.37592 25.6667 7.00709 25.6667H17.4931C17.4931 25.6667 17.4943 25.6667 17.4954 25.6667C15.5669 25.6643 14.0001 24.0952 14.0001 22.1667ZM17.2656 9.4255C18.1406 10.5222 18.6668 11.9082 18.6668 13.4167C18.6668 14.4678 18.4078 15.4572 17.9586 16.3333H18.8826C19.3656 14.9788 20.6489 14 22.1679 14C23.0604 14 23.8678 14.3465 24.4861 14.8983C24.3344 11.6387 21.4796 9.37533 18.0846 9.37533C17.8058 9.37533 17.5351 9.3975 17.2668 9.4255H17.2656Z" fill="#9C9C9C"/>
</g>
<defs>
<clipPath id="clip0_41_221">
<rect width="28" height="28" fill="white"/>
</clipPath>
</defs>
</svg>
