<svg width="20" height="20" viewBox="0 0 20 20" fill="none" xmlns="http://www.w3.org/2000/svg">
<g clip-path="url(#clip0_0_1611)">
<path d="M19.9617 4.61835L12.9467 11.6333C12.1645 12.4136 11.1048 12.8517 10 12.8517C8.89521 12.8517 7.83552 12.4136 7.05333 11.6333L0.0383333 4.61835C0.0266667 4.75001 0 4.86918 0 5.00001V15C0.00132321 16.1047 0.440735 17.1637 1.22185 17.9448C2.00296 18.7259 3.062 19.1654 4.16667 19.1667H15.8333C16.938 19.1654 17.997 18.7259 18.7782 17.9448C19.5593 17.1637 19.9987 16.1047 20 15V5.00001C20 4.86918 19.9733 4.75001 19.9617 4.61835Z" fill="white"/>
<path d="M11.7683 10.455L19.38 2.84248C19.0113 2.23108 18.4912 1.72501 17.87 1.37309C17.2487 1.02117 16.5473 0.835264 15.8333 0.833313H4.16666C3.45268 0.835264 2.75125 1.02117 2.13002 1.37309C1.50879 1.72501 0.988727 2.23108 0.619995 2.84248L8.23166 10.455C8.7013 10.9227 9.33715 11.1854 10 11.1854C10.6628 11.1854 11.2987 10.9227 11.7683 10.455Z" fill="white"/>
</g>
<defs>
<clipPath id="clip0_0_1611">
<rect width="20" height="20" fill="white"/>
</clipPath>
</defs>
</svg>