<svg width="28" height="28" viewBox="0 0 28 28" fill="none" xmlns="http://www.w3.org/2000/svg">
<g clip-path="url(#clip0_51_256)">
<path d="M22.1667 3.5H5.83333C4.28681 3.50185 2.80415 4.11703 1.71059 5.21059C0.617029 6.30415 0.0018525 7.78681 0 9.33333H28C27.9981 7.78681 27.383 6.30415 26.2894 5.21059C25.1959 4.11703 23.7132 3.50185 22.1667 3.5Z" fill="#9C9C9C"/>
<path d="M0 18.6665C0.0018525 20.213 0.617029 21.6957 1.71059 22.7892C2.80415 23.8828 4.28681 24.498 5.83333 24.4998H22.1667C23.7132 24.498 25.1959 23.8828 26.2894 22.7892C27.383 21.6957 27.9981 20.213 28 18.6665V11.6665H0V18.6665ZM8.16667 18.0832C8.16667 18.4293 8.06403 18.7676 7.87174 19.0554C7.67945 19.3432 7.40613 19.5675 7.08636 19.7C6.76659 19.8324 6.41473 19.8671 6.07526 19.7995C5.73579 19.732 5.42397 19.5653 5.17923 19.3206C4.93449 19.0759 4.76782 18.764 4.70029 18.4246C4.63277 18.0851 4.66742 17.7332 4.79988 17.4135C4.93233 17.0937 5.15663 16.8204 5.44442 16.6281C5.7322 16.4358 6.07055 16.3332 6.41667 16.3332C6.8808 16.3332 7.32591 16.5175 7.6541 16.8457C7.98229 17.1739 8.16667 17.619 8.16667 18.0832Z" fill="#9C9C9C"/>
</g>
<defs>
<clipPath id="clip0_51_256">
<rect width="28" height="28" fill="white"/>
</clipPath>
</defs>
</svg>
