<svg width="28" height="28" viewBox="0 0 28 28" fill="none" xmlns="http://www.w3.org/2000/svg">
<g clip-path="url(#clip0_51_249)">
<path d="M18.7063 21.1178C20.8529 22.2751 22.5388 24.1861 23.2714 26.5451C23.3811 26.8986 23.3169 27.2848 23.0964 27.5835C22.8759 27.8821 22.5283 28.0583 22.1573 28.0583H5.82509C5.45409 28.0583 5.10525 27.8821 4.88592 27.5835C4.66659 27.2848 4.60125 26.8998 4.71092 26.5451C5.44592 24.1815 7.13642 22.2681 9.28892 21.1108C9.84075 20.8145 10.5268 20.9381 10.9281 21.42L13.2019 24.1476C13.6173 24.6458 14.3826 24.6458 14.7979 24.1476L17.0659 21.4258C17.4673 20.944 18.1544 20.8203 18.7063 21.1178ZM24.0986 3.09162L16.5573 0.430455C14.9379 -0.142379 13.1553 -0.143545 11.5371 0.423455L3.90359 3.09512C2.94925 3.42879 2.33325 4.29679 2.33325 5.30712C2.33325 6.31862 2.95042 7.18662 3.90475 7.51912L11.4963 10.1675C12.3001 10.4475 13.1459 10.5886 13.9906 10.5886C14.8353 10.5886 15.6799 10.4475 16.4838 10.1675L23.3251 7.78162V12.8905C23.3251 13.5345 23.8478 14.0571 24.4918 14.0571C25.1358 14.0571 25.6584 13.5345 25.6584 12.8905C25.6584 12.8905 25.6631 5.31529 25.6631 5.30479C25.6643 4.29562 25.0506 3.42645 24.0998 3.09045L24.0986 3.09162ZM20.9906 11.067L17.2514 12.3713C15.1538 13.1028 12.8263 13.1028 10.7274 12.3713L6.99059 11.067V11.7238C6.99059 15.5843 10.1301 18.7238 13.9906 18.7238C17.8511 18.7238 20.9906 15.5843 20.9906 11.7238V11.0658V11.067Z" fill="#9C9C9C"/>
</g>
<defs>
<clipPath id="clip0_51_249">
<rect width="28" height="28" fill="white"/>
</clipPath>
</defs>
</svg>
