<svg width="28" height="28" viewBox="0 0 28 28" fill="none" xmlns="http://www.w3.org/2000/svg">
<g clip-path="url(#clip0_51_271)">
<path d="M28 26.8332C28 27.4772 27.4773 27.9999 26.8333 27.9999H3.5C1.57033 27.9999 0 26.4295 0 24.4999V1.16652C0.007 -0.359476 2.32633 -0.35831 2.33333 1.16652V24.4999C2.33333 25.1427 2.85717 25.6665 3.5 25.6665H26.8333C27.4773 25.6665 28 26.1892 28 26.8332ZM26.999 11.5499L24.6412 9.19202C23.3182 7.86902 21.0128 7.86902 19.691 9.19202L17.4988 11.383L12.9733 6.85869C11.6515 5.53569 9.34617 5.53569 8.02433 6.85869L5.691 9.19202C5.0295 9.85236 4.6655 10.732 4.6655 11.6665V19.8332C4.6655 21.7629 6.23583 23.3332 8.1655 23.3332H24.5058C26.4308 23.3332 28.0012 21.7675 28.0058 19.8437L28.0233 14.0349C28.0257 13.1085 27.6535 12.202 26.999 11.5499Z" fill="#9C9C9C"/>
</g>
<defs>
<clipPath id="clip0_51_271">
<rect width="28" height="28" fill="white"/>
</clipPath>
</defs>
</svg>
