<svg width="44" height="44" viewBox="0 0 44 44" fill="none" xmlns="http://www.w3.org/2000/svg">
<circle cx="22" cy="22" r="22" fill="#607AFB"/>
<path d="M21.25 14.5C24.976 14.5 28 17.524 28 21.25C28 24.976 24.976 28 21.25 28C17.524 28 14.5 24.976 14.5 21.25C14.5 17.524 17.524 14.5 21.25 14.5ZM21.25 26.5C24.1506 26.5 26.5 24.1506 26.5 21.25C26.5 18.3494 24.1506 16 21.25 16C18.3494 16 16 18.3494 16 21.25C16 24.1506 18.3494 26.5 21.25 26.5ZM27.614 26.5533L29.7353 28.6746L28.6746 29.7353L26.5533 27.614L27.614 26.5533Z" fill="white"/>
</svg>
