<svg width="16" height="4" viewBox="0 0 16 4" fill="none" xmlns="http://www.w3.org/2000/svg">
<path d="M2.16667 0.333313C1.25 0.333313 0.5 1.08331 0.5 1.99998C0.5 2.91665 1.25 3.66665 2.16667 3.66665C3.08333 3.66665 3.83333 2.91665 3.83333 1.99998C3.83333 1.08331 3.08333 0.333313 2.16667 0.333313ZM13.8333 0.333313C12.9167 0.333313 12.1667 1.08331 12.1667 1.99998C12.1667 2.91665 12.9167 3.66665 13.8333 3.66665C14.75 3.66665 15.5 2.91665 15.5 1.99998C15.5 1.08331 14.75 0.333313 13.8333 0.333313ZM8 0.333313C7.08333 0.333313 6.33333 1.08331 6.33333 1.99998C6.33333 2.91665 7.08333 3.66665 8 3.66665C8.91667 3.66665 9.66667 2.91665 9.66667 1.99998C9.66667 1.08331 8.91667 0.333313 8 0.333313Z" fill="#4B4B4B"/>
</svg>
