<svg width="28" height="28" viewBox="0 0 28 28" fill="none" xmlns="http://www.w3.org/2000/svg">
<path d="M13.9999 14C10.1394 14 6.99995 10.8605 6.99995 7C6.99995 3.1395 10.1394 0 13.9999 0C17.8604 0 20.9999 3.1395 20.9999 7C20.9999 10.8605 17.8604 14 13.9999 14ZM17.1663 16.8233L15.0161 20.055L17.1861 28H23.3333C23.9784 28 24.4999 27.4773 24.4999 26.8333C24.4999 22.1468 21.4129 18.1697 17.1663 16.8233ZM12.9826 20.055L10.8324 16.8233C6.58578 18.1697 3.49878 22.1468 3.49878 26.8333C3.49878 27.4773 4.02145 28 4.66545 28H10.8126L12.9826 20.055Z" fill="#9C9C9C"/>
</svg>
